<svg width="88" height="88" viewBox="0 0 88 88" fill="none" xmlns="http://www.w3.org/2000/svg">
<path fill-rule="evenodd" clip-rule="evenodd" d="M81.0569 20.8258L45.8349 0.494164C45.2786 0.17299 44.6476 0.00390625 44.0053 0.00390625C43.3629 0.00390625 42.7319 0.17299 42.1756 0.494164L6.94258 20.8258C6.47583 21.0962 6.08826 21.4843 5.81864 21.9515C5.54902 22.4187 5.40682 22.9484 5.40625 23.4878V64.5032C5.40625 65.6032 5.99292 66.6188 6.94625 67.1688L42.1719 87.5078C42.7283 87.8286 43.3593 87.9975 44.0016 87.9975C44.6439 87.9975 45.2748 87.8286 45.8313 87.5078L81.0606 67.1688C81.5286 66.8987 81.9172 66.5101 82.1875 66.0422C82.4578 65.5743 82.6003 65.0435 82.6006 64.5032V23.4915C82.5997 22.9518 82.4569 22.4217 82.1866 21.9545C81.9163 21.4873 81.528 21.0994 81.0606 20.8295L81.0569 20.8258ZM78.8459 25.1378L44.8376 84.0392C44.6066 84.4352 44.0016 84.2738 44.0016 83.8155V45.2458C44.001 44.8667 43.9007 44.4944 43.7109 44.1662C43.521 43.838 43.2483 43.5654 42.9199 43.3758L9.51658 24.0892C9.12425 23.8618 9.28558 23.2532 9.74392 23.2532H77.7606C78.7286 23.2532 79.3299 24.3018 78.8459 25.1378Z" fill="black"/>
</svg>
