<svg width="88" height="88" viewBox="0 0 88 88" fill="none" xmlns="http://www.w3.org/2000/svg">
<g clip-path="url(#clip0_3764_15870)">
<path fill-rule="evenodd" clip-rule="evenodd" d="M33.7517 31.746V23.4593C33.7517 22.7627 34.0157 22.2383 34.6243 21.89L51.282 12.298C53.5517 10.989 56.254 10.3803 59.0443 10.3803C69.509 10.3803 76.1383 18.491 76.1383 27.1223C76.1383 27.7347 76.1383 28.4313 76.0503 29.128L58.7803 19.0117C58.3114 18.7131 57.7669 18.5545 57.211 18.5545C56.6551 18.5545 56.1106 18.7131 55.6417 19.0117L33.7517 31.746ZM72.6513 64.0127V44.22C72.6513 42.999 72.127 42.13 71.0783 41.5177L49.1883 28.7833L56.3383 24.684C56.5974 24.5135 56.9008 24.4227 57.211 24.4227C57.5212 24.4227 57.8246 24.5135 58.0837 24.684L74.7413 34.2797C79.541 37.0663 82.7677 42.999 82.7677 48.7557C82.7677 55.385 78.8443 61.49 72.6477 64.02L72.6513 64.0127ZM28.6073 46.5777L21.4573 42.3903C20.845 42.042 20.581 41.5177 20.581 40.821V21.6297C20.581 12.298 27.731 5.23233 37.4147 5.23233C41.0813 5.23233 44.4803 6.45333 47.3587 8.635L30.1767 18.579C29.1317 19.1877 28.6073 20.0603 28.6073 21.2813V46.574V46.5777ZM44 55.4693L33.7517 49.7127V37.5027L44 31.746L54.2483 37.5027V49.7127L44 55.4693ZM50.5853 81.9793C46.9187 81.9793 43.5197 80.762 40.6413 78.5803L57.8233 68.6363C58.8683 68.0277 59.3927 67.155 59.3927 65.934V40.6413L66.6307 44.8287C67.243 45.177 67.5033 45.7013 67.5033 46.398V65.5857C67.5033 74.9173 60.2653 81.9793 50.5853 81.9793ZM29.9163 62.535L13.255 52.9393C8.459 50.149 5.23233 44.22 5.23233 38.4633C5.22103 35.1924 6.18607 31.9925 8.00394 29.2732C9.82182 26.5539 12.4098 24.4389 15.4367 23.199V43.0833C15.4367 44.3043 15.961 45.177 17.006 45.7893L38.8117 58.4357L31.6617 62.535C31.4027 62.7059 31.0993 62.7971 30.789 62.7971C30.4787 62.7971 30.1753 62.7059 29.9163 62.535ZM28.9557 76.835C19.0997 76.835 11.8617 69.4247 11.8617 60.2653C11.8617 59.5687 11.9497 58.872 12.034 58.1753L29.216 68.112C30.2647 68.7243 31.3097 68.7243 32.3547 68.112L54.2447 55.4693V63.756C54.2447 64.4527 53.988 64.977 53.3757 65.3253L36.718 74.9173C34.4483 76.2263 31.746 76.835 28.9557 76.835ZM50.5853 87.2117C55.6107 87.2121 60.482 85.4767 64.3752 82.299C68.2684 79.1214 70.9446 74.6966 71.951 69.773C81.719 67.243 88 58.08 88 48.752C88 42.647 85.3857 36.718 80.674 32.4427C81.1103 30.6093 81.3707 28.7797 81.3707 26.95C81.3707 14.4797 71.2543 5.14433 59.5687 5.14433C57.2147 5.14433 54.9487 5.49267 52.6753 6.281C48.6053 2.27483 43.1292 0.0204182 37.4183 2.35552e-08C32.3924 -0.000233486 27.5207 1.73567 23.6275 4.91404C19.7342 8.0924 17.0584 12.5181 16.0527 17.4423C6.281 19.9723 0 29.1317 0 38.4633C0 44.572 2.61433 50.501 7.326 54.7727C6.88967 56.606 6.62933 58.4393 6.62933 60.269C6.62933 72.7393 16.7457 82.071 28.4313 82.071C30.7853 82.071 33.0513 81.7227 35.3247 80.938C39.3951 84.9457 44.873 87.2003 50.5853 87.219V87.2117Z" fill="black"/>
</g>
<defs>
<clipPath id="clip0_3764_15870">
<rect width="88" height="88" fill="white"/>
</clipPath>
</defs>
</svg>
